<?xml version="1.0" encoding="UTF-8"?>
<svg width="256px" height="256px" viewBox="0 0 256 256" version="1.1" xmlns="http://www.w3.org/2000/svg" xmlns:xlink="http://www.w3.org/1999/xlink">
    <title>aspnet</title>
    <defs>
        <linearGradient x1="49.997%" y1="-19.516%" x2="49.997%" y2="129.625%" id="linearGradient-1">
            <stop stop-color="#0994DC" offset="0%"></stop>
            <stop stop-color="#66CEF5" offset="35.001%"></stop>
            <stop stop-color="#66CEF5" offset="35.001%"></stop>
            <stop stop-color="#127BCA" offset="84.616%"></stop>
            <stop stop-color="#127BCA" offset="84.616%"></stop>
            <stop stop-color="#127BCA" offset="100%"></stop>
        </linearGradient>
        <linearGradient x1="50.001%" y1="-19.516%" x2="50.001%" y2="129.624%" id="linearGradient-2">
            <stop stop-color="#0E76BC" offset="0%"></stop>
            <stop stop-color="#36AEE8" offset="36%"></stop>
            <stop stop-color="#36AEE8" offset="36%"></stop>
            <stop stop-color="#00ADEF" offset="84.616%"></stop>
            <stop stop-color="#00ADEF" offset="84.616%"></stop>
            <stop stop-color="#00ADEF" offset="100%"></stop>
        </linearGradient>
        <linearGradient x1="49.999%" y1="110.922%" x2="49.999%" y2="-6.214%" id="linearGradient-3">
            <stop stop-color="#1C63B7" offset="0%"></stop>
            <stop stop-color="#33BDF2" offset="50%"></stop>
            <stop stop-color="#33BDF2" stop-opacity="0.42" offset="100%"></stop>
        </linearGradient>
        <linearGradient x1="50.001%" y1="-19.515%" x2="50.001%" y2="129.627%" id="linearGradient-4">
            <stop stop-color="#166AB8" offset="0%"></stop>
            <stop stop-color="#36AEE8" offset="39.999%"></stop>
            <stop stop-color="#36AEE8" offset="39.999%"></stop>
            <stop stop-color="#0798DD" offset="84.616%"></stop>
            <stop stop-color="#0798DD" offset="84.616%"></stop>
            <stop stop-color="#0798DD" offset="100%"></stop>
        </linearGradient>
        <linearGradient x1="49.999%" y1="-19.521%" x2="49.999%" y2="129.627%" id="linearGradient-5">
            <stop stop-color="#124379" offset="0%"></stop>
            <stop stop-color="#1487CB" offset="39%"></stop>
            <stop stop-color="#1487CB" offset="39%"></stop>
            <stop stop-color="#165197" offset="78.023%"></stop>
            <stop stop-color="#165197" offset="78.023%"></stop>
            <stop stop-color="#165197" offset="100%"></stop>
        </linearGradient>
        <linearGradient x1="0%" y1="50.001%" x2="100%" y2="50.001%" id="linearGradient-6">
            <stop stop-color="#33BDF2" stop-opacity="0.698" offset="0%"></stop>
            <stop stop-color="#1DACD8" offset="100%"></stop>
        </linearGradient>
        <linearGradient x1="50.01%" y1="94.686%" x2="50.01%" y2="-3.025%" id="linearGradient-7">
            <stop stop-color="#136AB4" offset="0%"></stop>
            <stop stop-color="#59CAF5" stop-opacity="0.549" offset="60%"></stop>
            <stop stop-color="#59CAF5" stop-opacity="0.235" offset="100%"></stop>
        </linearGradient>
        <linearGradient x1="-0.001%" y1="50%" x2="99.999%" y2="50%" id="linearGradient-8">
            <stop stop-color="#05A1E6" stop-opacity="0.247" offset="0%"></stop>
            <stop stop-color="#05A1E6" offset="100%"></stop>
        </linearGradient>
        <linearGradient x1="49.998%" y1="124.314%" x2="49.998%" y2="-9.421%" id="linearGradient-9">
            <stop stop-color="#318ED5" offset="0%"></stop>
            <stop stop-color="#38A7E4" offset="100%"></stop>
        </linearGradient>
        <linearGradient x1="49.999%" y1="91.2%" x2="49.999%" y2="-76.785%" id="linearGradient-10">
            <stop stop-color="#05A1E6" offset="0%"></stop>
            <stop stop-color="#05A1E6" stop-opacity="0.549" offset="100%"></stop>
        </linearGradient>
        <linearGradient x1="50%" y1="100.01%" x2="50%" y2="0.01%" id="linearGradient-11">
            <stop stop-color="#1959A6" offset="0%"></stop>
            <stop stop-color="#05A1E6" offset="50%"></stop>
            <stop stop-color="#05A1E6" offset="50%"></stop>
            <stop stop-color="#7EC5EA" offset="91.759%"></stop>
            <stop stop-color="#7EC5EA" offset="100%"></stop>
        </linearGradient>
        <linearGradient x1="59.8387968%" y1="94.568%" x2="38.4300808%" y2="5.755%" id="linearGradient-12">
            <stop stop-color="#165096" offset="0%"></stop>
            <stop stop-color="#0D82CA" offset="100%"></stop>
        </linearGradient>
        <linearGradient x1="49.995%" y1="76.998%" x2="49.995%" y2="-3.299%" id="linearGradient-13">
            <stop stop-color="#05A1E6" offset="0%"></stop>
            <stop stop-color="#0495D6" offset="87.363%"></stop>
            <stop stop-color="#0495D6" offset="100%"></stop>
        </linearGradient>
        <linearGradient x1="65.3171721%" y1="-4.161%" x2="34.2071456%" y2="105.844%" id="linearGradient-14">
            <stop stop-color="#38A7E4" stop-opacity="0.329" offset="0%"></stop>
            <stop stop-color="#0E88D3" offset="96.153%"></stop>
            <stop stop-color="#0E88D3" offset="96.153%"></stop>
            <stop stop-color="#0E88D3" offset="100%"></stop>
        </linearGradient>
        <linearGradient x1="50.017%" y1="-0.296%" x2="50.017%" y2="101.882%" id="linearGradient-15">
            <stop stop-color="#168CD4" offset="0%"></stop>
            <stop stop-color="#1C87CC" offset="50%"></stop>
            <stop stop-color="#154B8D" offset="100%"></stop>
        </linearGradient>
        <linearGradient x1="16.674%" y1="205.014815%" x2="87.813%" y2="-19.5890117%" id="linearGradient-16">
            <stop stop-color="#97D6EE" offset="0%"></stop>
            <stop stop-color="#55C1EA" offset="70.329%"></stop>
            <stop stop-color="#55C1EA" offset="100%"></stop>
        </linearGradient>
        <linearGradient x1="6.89%" y1="6.45455337%" x2="75.783%" y2="116.534852%" id="linearGradient-17">
            <stop stop-color="#7ACCEC" offset="0%"></stop>
            <stop stop-color="#3FB7ED" offset="100%"></stop>
        </linearGradient>
        <linearGradient x1="49.997%" y1="6.363%" x2="49.997%" y2="127.961%" id="linearGradient-18">
            <stop stop-color="#1DA7E7" offset="0%"></stop>
            <stop stop-color="#37ABE7" stop-opacity="0" offset="100%"></stop>
        </linearGradient>
    </defs>
    <g id="icons/aspnet" stroke="none" stroke-width="1" fill="none" fill-rule="evenodd">
        <g id="dotnet" transform="translate(3.000000, 20.000000)" fill-rule="nonzero">
            <path d="M13.0793715,209.333528 C13.0793715,211.140075 12.4391008,212.702268 11.145069,214.022196 C9.8541504,215.337947 8.28823708,216 6.45044218,216 C4.65519363,216 3.12767579,215.337947 1.87619039,214.022196 C0.62366727,212.702268 0,211.140075 0,209.333528 C0,207.474768 0.62366727,205.908398 1.87619039,204.610399 C3.12767579,203.307179 4.65519363,202.662878 6.45044218,202.662878 C8.28823708,202.662878 9.8541504,203.316577 11.145069,204.636505 C12.4391008,205.955389 13.0793715,207.522803 13.0793715,209.333528 M95.1803422,214.642479 L83.2217039,214.642479 L39.8109337,147.17995 C38.7666061,145.49783 37.8853394,143.718609 37.1792861,141.866822 L36.8223118,141.866822 C37.1315512,143.673369 37.289284,147.550658 37.289284,153.491379 L37.289284,214.642479 L27.4309827,214.642479 L27.4309827,130.003133 L40.22602,130.003133 L82.3386076,196.402618 C84.0155566,199.037253 85.1611949,200.924207 85.7423159,202.061392 L85.9768396,202.061392 C85.5856207,199.626208 85.3822284,195.475327 85.3822284,189.616057 L85.3822284,130.003133 L95.1813799,130.003133 L95.1813799,214.642479 L95.1803422,214.642479 Z M158.38243,214.642479 L113.80423,214.642479 L113.80423,130.003133 L156.44709,130.003133 L156.44709,138.97217 L123.655267,138.97217 L123.655267,167.127155 L154.041665,167.127155 L154.041665,176.100369 L123.654229,176.100369 L123.654229,205.669265 L158.381393,205.669265 L158.381393,214.642479 L158.38243,214.642479 Z M225.998962,138.973214 L201.771409,138.973214 L201.771409,214.643523 L191.916221,214.643523 L191.916221,138.973214 L167.643007,138.973214 L167.643007,130 L226,130 L226,138.973214 L225.998962,138.973214 Z" id="Shape" fill="#000000"></path>
            <g id="Group">
                <path d="M91.8436102,21.4597091 C101.365842,50.5297369 104.973567,102.388194 132.821211,102.388194 C134.940958,102.388194 137.083564,102.180743 139.233443,101.772066 C113.919103,95.880474 110.918208,44.5862823 95.4721167,18.0232928 C94.2399864,19.1450837 93.0299074,20.290774 91.8425711,21.4597091" id="Path" fill="url(#linearGradient-1)"></path>
                <path d="M95.4721167,18.0232928 C110.919247,44.5862823 113.919103,95.880474 139.233443,101.772066 C141.222264,101.407991 143.215241,100.856172 145.212374,100.160176 C122.490567,89.0480943 116.210299,39.2371731 98.6673222,15.2579787 C97.5844809,16.1594394 96.5192131,17.0817291 95.4721167,18.0243301" id="Path" fill="url(#linearGradient-2)"></path>
                <path d="M117.728411,2.22477908 C115.612822,2.22477908 113.466059,2.43235622 111.312023,2.84103355 C105.677032,3.90110522 99.952678,6.32308891 94.1826045,9.98770065 C95.7589059,11.5404671 97.2583145,13.3172799 98.6694004,15.2569414 C104.538188,10.3953407 110.368528,6.80333664 116.178087,4.64377773 C118.298232,3.851874 120.483364,3.24556243 122.708776,2.83169828 C121.080518,2.42280113 119.407392,2.21895254 117.728411,2.22477908" id="Path" fill="#14559A"></path>
                <path d="M162.949661,89.9162744 C165.370385,87.9857289 167.701751,85.9461058 169.936511,83.8037476 C160.260493,54.8685625 156.797202,2.26847038 128.754208,2.26847038 C126.748762,2.26847038 124.725652,2.45517576 122.706698,2.82858653 C148.250677,9.17034598 151.522775,64.6467383 162.9507,89.9162744" id="Path" fill="url(#linearGradient-3)"></path>
                <path d="M122.707737,2.82962378 C121.079399,2.42126889 119.406298,2.2177718 117.727372,2.22386854 L128.755247,2.26432137 C126.749801,2.26432137 124.726691,2.45102676 122.707737,2.82858653" id="Path" fill="#3092C4"></path>
                <path d="M162.460249,96.0630304 C161.364008,95.0195548 160.322839,93.8744284 159.298295,92.6525454 C154.580821,95.9862738 149.88205,98.5150944 145.211335,100.160176 C146.878404,100.97752 148.643706,101.57781 150.463941,101.946324 C151.936619,102.243997 153.435708,102.392042 154.938268,102.388267 C160.178405,102.388267 164.321262,101.768954 167.848976,100.080308 C165.905876,99.0326832 164.125913,97.673883 162.460249,96.0630304" id="Path" fill="#1969BC"></path>
                <path d="M116.176009,4.64792674 C139.05472,16.5929221 141.04354,70.6876946 159.299334,92.6525454 C160.541708,91.7763822 161.757971,90.8638966 162.946544,89.9162744 C151.518619,64.6467383 148.250677,9.16619697 122.711893,2.82858653 C120.485075,3.24700541 118.298401,3.85569185 116.176009,4.64792674" id="Path" fill="url(#linearGradient-4)"></path>
                <path d="M98.6673222,15.2579787 C116.20926,39.2371731 122.490567,89.0470571 145.212374,100.160176 C149.883089,98.5150944 154.582899,95.9862738 159.299334,92.6525454 C141.04354,70.6876946 139.05472,16.5929221 116.176009,4.64792674 C110.367489,6.80333664 104.536109,10.3953407 98.6673222,15.2569414" id="Path" fill="url(#linearGradient-5)"></path>
                <path d="M80.6193468,20.7595639 C77.8699115,26.9654433 75.0612479,35.122394 71.6654978,45.769787 C78.4185516,36.2727066 85.1497846,28.0887874 91.8436102,21.4607463 C90.9219363,18.6311225 89.9316823,16.0224335 88.8645357,13.6969142 C85.990963,15.9014384 83.2388964,18.2594423 80.6203859,20.7606011" id="Path" fill="url(#linearGradient-6)"></path>
                <path d="M91.3022437,11.9066171 C90.4807618,12.4902507 89.6687793,13.0870943 88.8666138,13.6969142 C89.9337605,16.0213962 90.918819,18.6300853 91.841532,21.4597091 C93.0306126,20.2929399 94.2403046,19.1472881 95.4700385,18.0232928 C94.1742918,15.8004615 92.7974959,13.7477396 91.3022437,11.9066171" id="Path" fill="#2B74B1"></path>
                <path d="M94.1815654,9.9887379 C93.2075728,10.6066657 92.2472233,11.2457655 91.3012046,11.9055798 C92.7974959,13.7467023 94.1732527,15.7994243 95.4741949,18.0264046 C96.5190211,17.0802327 97.5843416,16.15686 98.6694004,15.2569414 C97.2593536,13.3183172 95.759945,11.5404671 94.1826045,9.98770065" id="Path" fill="#125A9E"></path>
                <path d="M250.239558,0.0114097733 C237.299755,49.8254427 210.272993,89.8353687 187.61353,99.9226455 L187.571967,99.9226455 C187.159448,100.109351 186.751085,100.27946 186.347917,100.444383 C186.291806,100.478613 186.240891,100.482762 186.198288,100.502469 C186.079832,100.550183 185.969688,100.587524 185.850193,100.635238 C185.794082,100.66843 185.744205,100.67984 185.69329,100.699547 C185.502097,100.768006 185.315061,100.825055 185.128024,100.899737 C185.046975,100.933966 184.971121,100.954711 184.894229,100.98168 C184.802358,101.016937 184.708713,101.047404 184.613674,101.072958 C184.528469,101.10615 184.439107,101.131044 184.341432,101.168385 C184.260383,101.201577 184.175178,101.216099 184.099324,101.249291 C183.933069,101.297005 183.781362,101.337457 183.615107,101.394506 C183.546527,101.394506 183.483143,101.431847 183.411446,101.450518 C183.308576,101.48371 183.193236,101.507567 183.083093,101.538684 C183.007239,101.571876 182.943854,101.583286 182.862805,101.599882 C182.748505,101.633074 182.620697,101.664192 182.505358,101.69116 L182.072057,101.786588 C183.109843,102.168514 184.207971,102.361049 185.314022,102.35514 C206.80035,102.35514 228.463323,63.9185873 264.308853,-4.42207175e-14 L250.234363,-4.42207175e-14 L250.239558,0.0114097733 L250.239558,0.0114097733 Z" id="Path" fill="url(#linearGradient-7)"></path>
                <path d="M66.9999783,4.24651017 C67.0134864,4.24651017 67.031151,4.2133181 67.0384246,4.2133181 C67.0560892,4.2133181 67.0820665,4.2133181 67.0903792,4.18012604 L67.1173956,4.18012604 C67.235852,4.13863595 67.3459956,4.09195961 67.4654911,4.04735776 C67.4966639,4.04735776 67.5122502,4.04735776 67.5340711,4.0141657 C67.5642048,4.0141657 67.5932993,3.97993638 67.623433,3.97578737 C67.7502021,3.93533454 67.8780103,3.88762094 67.9975058,3.84405635 L68.0172486,3.84405635 C68.3019596,3.75900168 68.5658887,3.65320196 68.8412479,3.55466301 C68.8807334,3.55466301 68.9181406,3.52147094 68.9648997,3.52147094 C69.0791998,3.48412986 69.1986953,3.44367703 69.3181908,3.41670848 C69.3732626,3.38247916 69.4283344,3.38247916 69.4792499,3.36484587 C69.6018627,3.32854205 69.7213582,3.28705196 69.8356582,3.26008341 C69.8876127,3.26008341 69.9333328,3.22585409 69.9717791,3.22274233 C70.3666338,3.11383086 70.7583712,3.01218015 71.1532259,2.91779021 C71.2082977,2.91779021 71.2550568,2.88356089 71.314285,2.88044913 C71.428585,2.84725706 71.5356114,2.82858653 71.6592633,2.81199049 C71.7101787,2.77879842 71.7694069,2.77879842 71.8286351,2.76116514 C71.9429352,2.72797307 72.0541179,2.72382406 72.1777698,2.69685551 L72.2577798,2.69685551 C72.4967708,2.64810466 72.7388791,2.60868908 72.9768309,2.56408724 L73.1212646,2.56408724 C73.2355647,2.53089517 73.3373956,2.52674616 73.4527347,2.50600112 C73.5150802,2.50600112 73.5795038,2.47280905 73.6397711,2.47280905 C73.7457584,2.47280905 73.8517457,2.43857973 73.957733,2.42509545 C74.013844,2.42509545 74.0678767,2.42509545 74.1323004,2.39086613 C74.3827214,2.35767406 74.6414551,2.34418979 74.9053842,2.32344474 C74.1457335,2.24721225 73.3828563,2.20740516 72.6193836,2.20416075 C48.4231055,2.20416075 15.0849028,47.020713 0.0679565656,105.059118 L2.96182561,105.059118 C7.76762249,96.5038626 12.0850465,88.4101843 16.0335931,80.8123125 C26.5502353,39.7028993 47.9721399,11.6680491 67.0010173,4.24028666" id="Path" fill="url(#linearGradient-8)"></path>
                <path d="M80.6203859,20.7595639 C83.2385013,18.2583698 85.990224,15.9003633 88.8634966,13.695877 C88.2791727,12.3982807 87.623905,11.1336951 86.9006533,9.90783223 C84.687389,12.589129 82.6642784,16.1271959 80.6203859,20.7595639" id="Path" fill="#0D82CA"></path>
                <path d="M82.6081674,4.58672887 C84.1875861,5.91026257 85.6038674,7.72960278 86.8996142,9.91094399 C87.307977,9.40995122 87.7204962,8.94733677 88.1486018,8.51480264 C86.350974,6.83964047 84.4099516,5.46528141 82.3016355,4.4301038 C82.386841,4.47678014 82.4720465,4.51515847 82.5603692,4.55249955 C82.5603692,4.55249955 82.5936202,4.58569161 82.6081674,4.58569161" id="Path" fill="#0D82CA"></path>
                <path d="M16.0315149,80.8174988 C38.0955779,38.3762539 48.5488355,11.515573 66.9999783,4.24443567 C47.9752572,11.6773843 26.5491962,39.7122346 16.032554,80.8174988" id="Path" fill="url(#linearGradient-9)"></path>
                <path d="M88.1475627,8.51376539 C87.718418,8.95044853 87.3110943,9.40891396 86.8985751,9.90990674 C87.622255,11.1358661 88.2788833,12.4000536 88.8655747,13.6969142 C89.6677478,13.0874427 90.4797303,12.4909449 91.3012046,11.9076543 C90.3306989,10.704212 89.2769038,9.57013797 88.1475627,8.51376539" id="Path" fill="#127BCA"></path>
                <path d="M26.0483543,104.87345 C25.9122333,104.907679 25.7761124,104.907679 25.6483042,104.921164 L25.5724505,104.921164 C25.4571114,104.921164 25.3376159,104.955393 25.2316286,104.955393 L25.1765567,104.955393 C24.9001585,104.988585 24.6279166,104.988585 24.3650265,105.00933 L24.279821,105.00933 C46.6109304,104.385941 56.8179234,93.2251086 61.8845322,77.0377521 C65.7343652,64.7660223 68.8952806,54.4277304 71.6665369,45.7531909 C62.3126378,58.8951753 52.917175,74.560794 43.4707967,92.1100626 C38.9154208,100.567816 31.9888388,104.100697 26.0473152,104.857891" id="Path" fill="url(#linearGradient-10)"></path>
                <path d="M26.0483543,104.865152 C31.9888388,104.110032 38.9154208,100.581301 43.4707967,92.1173234 C52.917175,74.573241 62.3178332,58.9034733 71.6613415,45.7614889 C75.0612479,35.1089097 77.8667942,26.956108 80.6203859,20.7502286 C61.9946759,38.4478243 43.2962294,67.8746669 26.0473152,104.856854" id="Path" fill="url(#linearGradient-11)"></path>
                <path d="M16.0315149,80.818536 C12.0829683,88.4153705 7.76554431,96.5090488 2.95974742,105.065342 L11.3774254,105.065342 C12.4404799,96.8986194 13.9946493,88.8031168 16.0315149,80.822685" id="Path" fill="#05A1E6"></path>
                <path d="M74.1312613,2.41264843 C74.0626813,2.41264843 74.0117658,2.44584049 73.9525376,2.44584049 C73.8507067,2.48006981 73.7447193,2.48006981 73.637693,2.49044234 C73.5753475,2.49044234 73.5150802,2.49044234 73.4506565,2.52467166 C73.3363565,2.55786372 73.2303692,2.56097548 73.1191864,2.58275777 C73.068271,2.58275777 73.0173555,2.58275777 72.9747528,2.61594984 C72.7326445,2.65640267 72.4946926,2.70100452 72.2577798,2.74145735 L72.1767307,2.74145735 C72.0530788,2.77568667 71.9418961,2.79331995 71.8275961,2.80991599 C71.7683679,2.84310806 71.7091397,2.84310806 71.6530287,2.85659233 C71.5387287,2.89082165 71.4244287,2.90430593 71.3132459,2.92505097 C71.2540177,2.95824304 71.2072586,2.95824304 71.1521868,2.9613548 C70.7573321,3.05678199 70.3655947,3.1584327 69.97074,3.26734417 C69.9291764,3.26734417 69.8855346,3.30053624 69.8346191,3.307797 C69.7161627,3.34098907 69.6008236,3.37521839 69.4771717,3.41255947 C69.4262562,3.44678879 69.367028,3.44678879 69.3161126,3.46027307 C69.1977038,3.49298827 69.0799195,3.52791522 68.9628216,3.56503553 C68.9171016,3.56503553 68.8786552,3.5982276 68.8360524,3.5982276 C68.5638105,3.69987831 68.295725,3.80256626 68.0151704,3.88658369 C67.896714,3.92392476 67.7689058,3.97163836 67.6410975,4.0162402 C67.5901821,4.04943227 67.5444621,4.05773029 67.4852339,4.08054983 C67.3657384,4.11789091 67.2462429,4.16560451 67.1360992,4.2091691 C67.0945356,4.24339842 67.0508937,4.24651017 67.0217992,4.26414346 C48.5706564,11.5352808 38.1163597,38.3949244 16.0533359,80.8361693 C14.0146684,88.8164937 12.4608213,96.9124715 11.4002854,105.079863 L12.5817321,105.079863 C15.9089022,105.079863 16.8482406,105.045634 20.6762527,105.045634 L24.3868474,105.045634 C24.6497375,105.012442 24.9219794,105.012442 25.1973386,104.990659 L25.2492931,104.990659 C25.3635932,104.990659 25.4778932,104.957467 25.589076,104.957467 L25.6701251,104.957467 C25.7927378,104.957467 25.9330152,104.924275 26.0691361,104.909754 C43.3180503,67.9275667 62.0154577,38.5007241 80.6422069,20.8031285 C82.6892166,16.1717978 84.7081708,12.6337308 86.9183178,9.95658308 C85.6256883,7.77627913 84.2104461,5.95278991 82.6299884,4.6292562 C82.6299884,4.6292562 82.5873856,4.6292562 82.5842683,4.59502688 C82.4938674,4.55872306 82.409701,4.51412122 82.3203392,4.47055663 C82.2309773,4.42180578 82.1540846,4.3844647 82.0605664,4.33778836 C81.9737067,4.30127301 81.8887404,4.26042289 81.805989,4.21539261 C81.6958453,4.18116329 81.6064835,4.13344969 81.5088089,4.0898851 C81.4277598,4.05565578 81.3560625,4.02142646 81.2750134,3.98823439 C81.1104344,3.92446065 80.9475857,3.85632361 80.7866405,3.78389573 C80.7139041,3.75070366 80.6463632,3.73203312 80.5788223,3.70610182 C80.455202,3.66117639 80.3328862,3.61275173 80.2120231,3.56088652 C80.1527949,3.5266572 80.085254,3.51939644 80.0166739,3.49553964 C79.8431457,3.43745352 79.6727347,3.37625564 79.5116756,3.32231853 L79.4690729,3.32231853 C79.2737237,3.2580089 79.0825309,3.21029531 78.8830254,3.1563582 C78.8362663,3.12212888 78.7978199,3.12212888 78.7510608,3.11486811 C78.5764935,3.06819177 78.4237471,3.02151542 78.2585316,2.97691358 C78.2169679,2.97691358 78.1774825,2.94268426 78.1442316,2.94268426 C77.7378389,2.83876 77.3278242,2.74949831 76.9149867,2.67507321 C76.873423,2.67507321 76.8308203,2.64084389 76.7882175,2.64084389 C76.6123395,2.60595172 76.435226,2.57758067 76.2572419,2.55578922 C76.2136001,2.52259715 76.1886619,2.52259715 76.1512546,2.52259715 C75.9419986,2.49058501 75.7320493,2.46326383 75.5215653,2.44065423 L75.4114217,2.44065423 C75.2410107,2.40746217 75.0841079,2.40435041 74.9272052,2.38671712 C74.6591196,2.41990919 74.4045423,2.43443072 74.1530822,2.45828752" id="Path" fill="url(#linearGradient-12)"></path>
                <path d="M199.695044,27.5888318 C195.450356,41.1633503 192.012004,52.3615242 189.02046,61.5754347 C200.668672,45.5747836 212.142318,25.445869 223.068362,2.21764503 C210.323908,6.21314019 203.524095,15.3596294 199.695044,27.5888318" id="Path" fill="url(#linearGradient-13)"></path>
                <path d="M189.390376,99.0741733 C188.796016,99.3770509 188.200617,99.6643698 187.61353,99.9226455 C210.272993,89.8353687 237.299755,49.8254427 250.239558,0.0114097733 L247.616892,0.0114097733 C217.888492,53.023291 208.326775,88.511835 189.390376,99.0741733" id="Path" fill="url(#linearGradient-14)"></path>
                <path d="M174.594757,94.62125 C179.524205,88.614523 183.540293,78.4038131 189.022538,61.5754347 C182.698629,70.2468624 176.333156,77.6995189 169.962488,83.7788536 C169.962488,83.8120456 169.962488,83.8120456 169.929237,83.8327907 C171.318502,87.9900972 172.843888,91.6588579 174.582287,94.6202127" id="Path" fill="#079AE1"></path>
                <path d="M174.594757,94.62125 C172.916624,96.6646366 171.139778,98.2225893 169.163427,99.3760137 C168.730126,99.6270287 168.292668,99.8635222 167.846898,100.081345 C169.990986,101.240364 172.337622,101.978705 174.759972,102.256463 C175.134045,102.293804 175.503961,102.328033 175.890503,102.355002 L175.959083,102.355002 C176.132612,102.355002 176.315492,102.355002 176.502528,102.388194 L178.346915,102.388194 C178.414456,102.388194 178.485114,102.388194 178.553694,102.355002 C178.685659,102.355002 178.824897,102.355002 178.961018,102.320772 L179.162602,102.320772 C179.30184,102.320772 179.454586,102.28758 179.604215,102.273059 L179.637466,102.273059 C179.682147,102.273059 179.729945,102.239867 179.773587,102.239867 C179.929451,102.205637 180.093627,102.192153 180.245335,102.168296 L180.385612,102.168296 C180.558101,102.135104 180.737864,102.113322 180.915548,102.08013 L181.001793,102.08013 C181.358201,102.011671 181.706297,101.945287 182.059588,101.856083 C179.135585,100.787714 176.687486,98.2671912 174.580209,94.6782988" id="Path" fill="#1969BC"></path>
                <path d="M132.821211,102.388194 C134.941997,102.388194 137.083564,102.180743 139.234482,101.768954 C141.223303,101.409028 143.21628,100.856172 145.213413,100.161214 C146.87901,100.977727 148.642486,101.577991 150.460824,101.947362 C151.935281,102.244753 153.436099,102.39245 154.940346,102.388194 L132.821211,102.388194 L132.821211,102.388194 Z" id="Path" fill="#1E5CB3"></path>
                <path d="M154.940346,102.388194 C160.176327,102.388194 164.32334,101.768954 167.845859,100.080308 C169.990167,101.240056 172.337151,101.9791 174.759972,102.2575 C175.134045,102.293804 175.503961,102.328033 175.890503,102.355002 L175.959083,102.355002 C176.132612,102.355002 176.315492,102.355002 176.502528,102.389231 L177.138452,102.389231 L154.925799,102.389231 L154.940346,102.389231 L154.940346,102.388194 Z" id="Path" fill="#1E5CB3"></path>
                <path d="M177.150921,102.388194 L178.362501,102.388194 C178.434199,102.388194 178.50174,102.388194 178.57032,102.355002 C178.702284,102.355002 178.841522,102.355002 178.982839,102.320772 L179.183383,102.320772 C179.322622,102.320772 179.475368,102.28758 179.620841,102.274096 L179.658248,102.274096 C179.702929,102.274096 179.746571,102.240904 179.791252,102.240904 C179.947115,102.206675 180.110253,102.19319 180.26196,102.168296 C180.313915,102.168296 180.354439,102.168296 180.408472,102.135104 C180.582,102.101912 180.761763,102.084279 180.940487,102.051087 L181.025692,102.051087 C181.3821,101.982628 181.730196,101.915207 182.082448,101.82704 C183.120257,102.20888 184.218369,102.401412 185.324412,102.395455 L177.157156,102.428647 L177.150921,102.388194 L177.150921,102.388194 Z" id="Path" fill="#1D60B5"></path>
                <path d="M169.942745,83.8338279 L169.942745,83.7995986 C167.708399,85.9420138 165.377376,87.9816398 162.956935,89.9121254 C161.766401,90.8585875 160.549132,91.771047 159.306607,92.6483964 C160.330112,93.8702794 161.371282,95.0154058 162.468562,96.0599187 C164.134225,97.6707712 165.914189,99.0285342 167.85625,100.076159 C168.298903,99.8583359 168.739478,99.6218424 169.169661,99.3718647 C171.14913,98.2184403 172.925976,96.6615249 174.604108,94.617101 C172.866748,91.6557462 171.341362,87.9869854 169.951058,83.8296789" id="Path" fill="#175FAB"></path>
                <path d="M239.313514,0.0114097733 L226.116016,0.0114097733 C225.4032,0.0456390932 224.710126,0.0694958919 224.026404,0.113060481 C223.703247,0.804907644 223.371777,1.49675481 223.052775,2.19275098 C212.12777,25.4209749 200.654125,45.5498895 189.005913,61.5505407 C183.527824,78.3778818 179.508619,88.5885917 174.57917,94.5953187 C176.686447,98.184211 179.138702,100.707845 182.053353,101.777252 C182.138559,101.743023 182.207139,101.743023 182.282992,101.72539 L182.330791,101.72539 C182.381706,101.72539 182.436778,101.692198 182.49185,101.692198 C182.610306,101.657968 182.738114,101.637223 182.85761,101.600919 C182.933464,101.56669 182.996848,101.563578 183.073741,101.538684 C183.184924,101.505492 183.299224,101.481635 183.401055,101.454667 C183.469635,101.420438 183.537176,101.410065 183.604717,101.396581 C183.775127,101.341606 183.927874,101.301154 184.089972,101.250328 C184.165826,101.217136 184.246875,101.188093 184.33208,101.168385 C184.425599,101.135193 184.519117,101.111336 184.604322,101.070884 C184.701997,101.036654 184.799671,101.019021 184.884877,100.982717 C184.960731,100.948488 185.040741,100.927743 185.113477,100.897663 C185.30467,100.829204 185.491706,100.772155 185.682899,100.697473 C185.734854,100.697473 185.785769,100.649759 185.840841,100.639387 C185.955141,100.591673 186.074636,100.554332 186.188936,100.503507 C186.2305,100.469277 186.282455,100.466166 186.337526,100.448532 C186.737577,100.282572 187.149057,100.112463 187.561576,99.9267946 L187.604179,99.9267946 C188.202978,99.6607273 188.794112,99.3777899 189.376868,99.0783223 C208.316384,88.515984 217.87914,53.02744 247.60754,0.0155587818 L239.304162,0.0155587818 L239.314553,0.0114097733 L239.313514,0.0114097733 Z" id="Path" fill="url(#linearGradient-15)"></path>
                <path d="M74.9053842,2.34107803 C74.9521433,2.34107803 74.9947461,2.34107803 75.0404661,2.3742701 C75.1558052,2.3742701 75.2711443,2.3742701 75.3854444,2.41161117 L75.4997444,2.41161117 C75.7086018,2.44480324 75.91642,2.46347378 76.1294337,2.49355409 C76.1678801,2.49355409 76.2021701,2.49355409 76.235421,2.52674616 C76.4099883,2.55993823 76.588712,2.58898129 76.7663966,2.61491259 C76.804843,2.61491259 76.8557585,2.64914191 76.8983612,2.64914191 C77.306724,2.73004757 77.7233996,2.81510225 78.1224106,2.91986471 C78.1598179,2.91986471 78.1993034,2.95409403 78.2325543,2.95409403 C78.4029653,2.99454686 78.5557117,3.04537222 78.7261226,3.09308582 C78.7780772,3.09308582 78.8144454,3.12627788 78.8612045,3.1345759 C79.0617491,3.18540125 79.2487855,3.23622661 79.4430956,3.30053624 C79.4524474,3.30053624 79.4638774,3.30053624 79.4867374,3.33372831 C79.652992,3.38455366 79.8223639,3.44886329 79.9958921,3.50694941 C80.0655112,3.54014148 80.1288958,3.55466301 80.1922804,3.57125904 C80.3117758,3.62312165 80.4437404,3.67290975 80.5580405,3.72062335 C80.6255814,3.72062335 80.6931223,3.76833695 80.7658587,3.793231 C80.9227615,3.86376414 81.087977,3.92807377 81.2500752,3.99549516 C81.3352807,4.02972448 81.406978,4.06810281 81.4890662,4.09818312 C81.5825844,4.14589672 81.6792199,4.1894613 81.7810508,4.22265337 C81.8662563,4.26414346 81.9597745,4.30770805 82.0408236,4.34504912 C82.1301855,4.39379997 82.2143519,4.4301038 82.3005964,4.47781739 C84.4078734,5.51299501 86.3499349,6.89150307 88.1475627,8.56355349 C88.7912678,7.88696836 89.4841477,7.25875972 90.2205497,6.68405265 C86.2896676,3.90006796 81.8371618,2.31307222 76.6988557,2.31307222 C76.1034564,2.31307222 75.5090962,2.34730154 74.9053842,2.39190338" id="Path" fill="#7DCBEC"></path>
                <path d="M88.1475627,8.51376539 C89.276899,9.57014277 90.3306937,10.7042165 91.3012046,11.9076543 C92.2461298,11.2455746 93.2065153,10.6057591 94.1815654,9.9887379 C92.958579,8.759312 91.6323547,7.63670599 90.2174324,6.6332273 C89.4810724,7.20683278 88.7891492,7.83511883 88.1475627,8.51272813" id="Path" fill="#5EC5ED"></path>
                <path d="M74.9043451,6.52016681 C75.5070181,6.57099217 76.1024173,6.59277446 76.6978166,6.59277446 C81.8350836,6.59277446 86.2886285,5.00577872 90.2195106,2.22594305 C94.3675627,5.49328722 99.3811779,6.63426455 106.346206,6.63426455 L72.6173054,6.63426455 C73.3966238,6.63426455 74.1561995,6.5875882 74.9043451,6.52016681" id="Path" fill="url(#linearGradient-16)" transform="translate(89.481756, 4.430104) scale(-1, 1) rotate(-180.000000) translate(-89.481756, -4.430104) "></path>
                <path d="M106.346206,9.9887379 C99.3811779,9.9887379 94.3675627,8.84776057 90.2195106,5.5804164 C91.6325964,4.57620593 92.9576962,3.45401593 94.1805263,2.22594305 C99.9547562,5.89055478 105.674953,8.31772473 111.315141,9.3777964 C113.428666,9.7790125 115.574936,9.9835369 117.726333,9.9887379 L106.346206,9.9887379 L106.346206,9.9887379 Z" id="Path" fill="url(#linearGradient-17)" transform="translate(103.972922, 6.107340) scale(-1, 1) rotate(-180.000000) translate(-103.972922, -6.107340) "></path>
                <path d="M189.02046,61.5837328 C192.01616,52.3625614 195.4462,41.1674993 199.6992,27.5888318 C203.533447,15.3544431 210.318713,6.20899118 223.063166,2.21764503 C223.399832,1.53409588 223.717794,0.829801694 224.045108,0.138991784 C203.269518,1.38161982 193.55921,11.9315111 188.672364,27.5546025 C180.126878,54.8301842 174.950126,72.5111838 169.965605,83.7778163 C176.332117,77.7036679 182.69759,70.2458252 189.02046,61.5837328" id="Path" fill="url(#linearGradient-18)"></path>
                <path d="M219.501162,95.1222427 L217.146581,95.1222427 L217.146581,102.427609 L216.186461,102.427609 L216.186461,95.1222427 L213.822528,95.1222427 L213.822528,94.2530255 L219.500123,94.2530255 L219.500123,95.1222427 L219.501162,95.1222427 Z M229.140811,102.425535 L228.184847,102.425535 L228.184847,96.9363967 C228.184847,96.5038626 228.218098,95.9738267 228.262779,95.349401 C228.164065,95.7228117 228.083016,95.9821247 228.008202,96.1480851 L225.22032,102.425535 L224.752729,102.425535 L221.957573,96.1947614 C221.874446,96.0215403 221.793397,95.740445 221.705074,95.3504382 L221.671823,95.3504382 C221.705074,95.6792471 221.716504,96.2113575 221.716504,96.949881 L221.716504,102.426572 L220.797948,102.426572 L220.797948,94.2519882 L222.0646,94.2519882 L224.576083,99.9568749 C224.766237,100.38526 224.885732,100.716143 224.946,100.937078 L224.982368,100.937078 C225.148622,100.486911 225.285783,100.151878 225.377223,99.9309436 L227.940661,94.2519882 L229.147045,94.2519882 L229.147045,102.425535 L229.140811,102.425535 L229.140811,102.425535 Z" id="Shape" fill="#000000"></path>
            </g>
        </g>
    </g>
</svg>