<?xml version="1.0" encoding="UTF-8"?>
<svg width="90px" height="79px" viewBox="0 0 90 79" version="1.1" xmlns="http://www.w3.org/2000/svg" xmlns:xlink="http://www.w3.org/1999/xlink">
    <!-- Generator: Sketch 63.1 (92452) - https://sketch.com -->
    <title>Group 14</title>
    <desc>Created with Sketch.</desc>
    <defs>
        <polygon id="path-1" points="54.5 15 88.7080034 34.75 88.7080034 74.25 54.5 94 20.2919966 74.25 20.2919966 34.75"></polygon>
        <filter x="-5.0%" y="-8.0%" width="110.0%" height="123.5%" filterUnits="objectBoundingBox" id="filter-2">
            <feMorphology radius="0.25" operator="dilate" in="SourceAlpha" result="shadowSpreadOuter1"></feMorphology>
            <feOffset dx="0" dy="3" in="shadowSpreadOuter1" result="shadowOffsetOuter1"></feOffset>
            <feGaussianBlur stdDeviation="2.5" in="shadowOffsetOuter1" result="shadowBlurOuter1"></feGaussianBlur>
            <feComposite in="shadowBlurOuter1" in2="SourceAlpha" operator="out" result="shadowBlurOuter1"></feComposite>
            <feColorMatrix values="0 0 0 0 0   0 0 0 0 0   0 0 0 0 0  0 0 0 0.1 0" type="matrix" in="shadowBlurOuter1"></feColorMatrix>
        </filter>
    </defs>
    <g id="Page-1" stroke="none" stroke-width="1" fill="none" fill-rule="evenodd">
        <g id="1200XL-Desktop---Home" transform="translate(-258.000000, -667.000000)">
            <g id="Group-14" transform="translate(247.000000, 649.000000)">
                <g id="Group-4">
                    <g id="Polygon-Copy-79" transform="translate(54.500000, 54.500000) scale(-1, 1) rotate(30.000000) translate(-54.500000, -54.500000) ">
                        <use fill="black" fill-opacity="1" filter="url(#filter-2)" xlink:href="#path-1"></use>
                        <use stroke="#D8D8D8" stroke-width="0.5" fill="#FFFFFF" fill-rule="evenodd" xlink:href="#path-1"></use>
                    </g>
                    <g id="Group-13" transform="translate(35.000000, 38.000000)">
                        <line x1="0" y1="30.2369735" x2="37.3352107" y2="30.2369735" id="Stroke-1" stroke="#1F4666" stroke-width="1.5" stroke-linecap="round"></line>
                        <path d="M35.9552107,27.1400465 L1.38000003,27.1400465 C0.617780011,27.1400465 0,26.5220365 0,25.7600465 L0,1.37981603 C0,0.617826011 0.617780011,-0.000184000003 1.38000003,-0.000184000003 L35.9552107,-0.000184000003 C36.7174307,-0.000184000003 37.3352107,0.617826011 37.3352107,1.37981603 L37.3352107,25.7600465 C37.3352107,26.5220365 36.7174307,27.1400465 35.9552107,27.1400465 Z" id="Stroke-3" stroke="#1F4666" stroke-width="1.5" stroke-linecap="round" stroke-linejoin="round"></path>
                        <path d="M9.49672317,21.8981164 L5.6113331,21.8981164 C5.3574131,21.8981164 5.15133309,21.6920364 5.15133309,21.4381164 L5.15133309,17.5527263 C5.15133309,17.2988063 5.3574131,17.0927263 5.6113331,17.0927263 L9.49672317,17.0927263 C9.75064318,17.0927263 9.95672318,17.2988063 9.95672318,17.5527263 L9.95672318,21.4381164 C9.95672318,21.6920364 9.75064318,21.8981164 9.49672317,21.8981164 Z" id="Stroke-5" stroke="#4A90E2" stroke-width="1.5" stroke-linecap="round" stroke-linejoin="round"></path>
                        <line x1="14.5635083" y1="21.6845154" x2="31.9724386" y2="21.6845154" id="Stroke-7" stroke="#4A90E2" stroke-width="1.5" stroke-linecap="round" stroke-linejoin="round"></line>
                        <line x1="14.5635083" y1="17.6357103" x2="22.6622684" y2="17.6357103" id="Stroke-9" stroke="#4A90E2" stroke-width="1.5" stroke-linecap="round" stroke-linejoin="round"></line>
                        <path d="M31.5393716,5.4416621 L31.2923516,5.4416621 C22.8407714,5.4416621 14.3894213,5.4425821 5.93807111,5.4368321 C5.7170411,5.4368321 5.6685111,5.5046821 5.66964132,5.7146721 C5.6781711,7.25498213 5.6735711,8.79529216 5.6756411,10.3356022 C5.6758711,10.4729122 5.6880611,10.6113722 5.7064611,10.7475322 C5.79892111,11.4324722 6.32148111,11.9879222 6.98342113,12.1100522 C7.67319114,12.2377022 8.37492115,11.9203022 8.69209116,11.3055122 C8.81560116,11.0663122 8.87701116,10.7946822 8.97062116,10.5260422 L10.1774312,10.5260422 C10.4101912,11.5907122 10.9325212,12.1130422 11.7821412,12.1365022 C12.1427812,12.1463922 12.4707612,12.0387522 12.7637812,11.8299122 C13.2115912,11.5115922 13.4027212,11.0513622 13.4540112,10.5271922 L14.7024513,10.5271922 C14.9089913,11.5173422 15.3871613,12.0465722 16.1167213,12.1176422 C16.4826513,12.1535222 16.8297213,12.1068322 17.1498813,11.9191522 C17.6837113,11.6063522 17.9217613,11.1102422 17.9774213,10.5313322 L19.2382813,10.5313322 C19.3100414,11.5863422 20.1069914,12.1038422 20.7963014,12.1344322 C21.1859214,12.1519122 21.5327614,12.0353022 21.8430314,11.8048422 C22.2703714,11.4879022 22.4536814,11.0412422 22.4925514,10.5221322 L23.7472014,10.5221322 C23.9995114,11.6088822 24.4875714,12.1026922 25.3452415,12.1319022 C25.6943815,12.1438622 26.0235115,12.0562322 26.3100915,11.8492322 C26.7583615,11.5253922 26.9874415,11.0766622 27.0129715,10.5101722 C27.3943115,10.5101722 27.7515015,10.5097122 28.1086915,10.5108622 C28.1638915,10.5108622 28.2190915,10.5189122 28.2848715,10.5242022 C28.2952215,10.5902122 28.3062615,10.6444922 28.3117815,10.6994622 C28.4104515,11.6709822 29.3891015,12.3400522 30.3300316,12.0787722 C31.0775316,11.8713122 31.5350016,11.2503122 31.5379916,10.4172522 C31.5428216,9.09705217 31.5393716,7.77662214 31.5393716,6.45642212 L31.5393716,5.4416621 Z M4.40604108,4.16493208 L32.8120638,4.16493208 L32.8120638,4.45013208 C32.8120638,6.47183212 32.8120638,8.49330215 32.8120638,10.5147722 C32.8117316,11.6769622 32.0812516,12.7883222 31.0545316,13.1903622 C29.8663515,13.6554222 28.6273415,13.3886222 27.7878415,12.4865622 C27.7494315,12.4451622 27.7105615,12.4042222 27.6496115,12.3395922 C27.0566715,13.0381022 26.3031915,13.4178322 25.3956115,13.4185222 C24.4942414,13.4189822 23.7432914,13.0491422 23.1312614,12.3492522 C22.5265914,13.0330422 21.7788614,13.4169122 20.8671414,13.4159922 C19.9611714,13.4150722 19.2145913,13.0461522 18.6064713,12.3347622 C18.0093913,13.0415522 17.2536113,13.4182922 16.3469513,13.4178322 C15.4469613,13.4171422 14.6927913,13.0546622 14.0855913,12.3441922 C13.4903512,13.0307422 12.7403212,13.4162222 11.8297512,13.4164522 C10.9180312,13.4169122 10.1588012,13.0502922 9.61416117,12.3993922 C9.20775117,12.6687222 8.85056116,12.9746222 8.44001115,13.1652922 C6.76584112,13.9429223 4.75656109,12.8603122 4.44698108,11.0373322 C4.41570108,10.8535622 4.39569108,10.6656522 4.39546108,10.4795822 C4.39178108,8.44201215 4.39298365,6.40421212 4.39362108,4.36618208 C4.39362108,4.30339208 4.40121108,4.24014208 4.40604108,4.16493208 L4.40604108,4.16493208 Z" id="Fill-11" fill="#F5A623"></path>
                    </g>
                </g>
            </g>
        </g>
    </g>
</svg>