<?xml version="1.0" encoding="UTF-8"?>
<svg width="90px" height="79px" viewBox="0 0 90 79" version="1.1" xmlns="http://www.w3.org/2000/svg" xmlns:xlink="http://www.w3.org/1999/xlink">
    <!-- Generator: Sketch 63.1 (92452) - https://sketch.com -->
    <title>Group 15</title>
    <desc>Created with Sketch.</desc>
    <defs>
        <polygon id="path-1" points="54.5 15 88.7080034 34.75 88.7080034 74.25 54.5 94 20.2919966 74.25 20.2919966 34.75"></polygon>
        <filter x="-5.0%" y="-8.0%" width="110.0%" height="123.5%" filterUnits="objectBoundingBox" id="filter-2">
            <feMorphology radius="0.25" operator="dilate" in="SourceAlpha" result="shadowSpreadOuter1"></feMorphology>
            <feOffset dx="0" dy="3" in="shadowSpreadOuter1" result="shadowOffsetOuter1"></feOffset>
            <feGaussianBlur stdDeviation="2.5" in="shadowOffsetOuter1" result="shadowBlurOuter1"></feGaussianBlur>
            <feComposite in="shadowBlurOuter1" in2="SourceAlpha" operator="out" result="shadowBlurOuter1"></feComposite>
            <feColorMatrix values="0 0 0 0 0   0 0 0 0 0   0 0 0 0 0  0 0 0 0.1 0" type="matrix" in="shadowBlurOuter1"></feColorMatrix>
        </filter>
    </defs>
    <g id="Page-1" stroke="none" stroke-width="1" fill="none" fill-rule="evenodd">
        <g id="1200XL-Desktop---Home" transform="translate(-638.000000, -667.000000)">
            <g id="Group-15" transform="translate(627.000000, 649.000000)">
                <g id="Group-17">
                    <g id="Polygon-Copy-95">
                        <g id="Polygon-Copy-84" transform="translate(54.500000, 54.500000) scale(-1, 1) rotate(30.000000) translate(-54.500000, -54.500000) ">
                            <use fill="black" fill-opacity="1" filter="url(#filter-2)" xlink:href="#path-1"></use>
                            <use stroke="#D8D8D8" stroke-width="0.5" fill="#FFFFFF" fill-rule="evenodd" xlink:href="#path-1"></use>
                        </g>
                    </g>
                    <g id="Group-34" transform="translate(33.000000, 32.000000)">
                        <path d="M24.5064544,23.7102864 L38.6503047,23.7102864 L24.5064544,23.7102864 Z" id="Fill-1" fill="#FFFFFF"></path>
                        <line x1="24.5063854" y1="23.7101944" x2="38.6502357" y2="23.7101944" id="Stroke-2" stroke="#1D4371" stroke-width="1.5" stroke-linecap="round" stroke-linejoin="round"></line>
                        <path d="M4.34134208,23.7102864 L18.3950323,23.7102864 L4.34134208,23.7102864 Z" id="Fill-3" fill="#FFFFFF"></path>
                        <line x1="4.34141108" y1="23.7101944" x2="18.3951013" y2="23.7101944" id="Stroke-4" stroke="#1D4371" stroke-width="1.5" stroke-linecap="round" stroke-linejoin="round"></line>
                        <g id="Group-33" transform="translate(0.000000, 0.089240)">
                            <path d="M4.34141108,23.6209544 C4.34141108,24.8199445 3.36943106,25.7916945 2.17067104,25.7916945 C0.971911018,25.7916945 -6.90000013e-05,24.8199445 -6.90000013e-05,23.6209544 C-6.90000013e-05,22.4221944 0.971911018,21.4502144 2.17067104,21.4502144 C3.36943106,21.4502144 4.34141108,22.4221944 4.34141108,23.6209544 Z" id="Stroke-5" stroke="#1D4371" stroke-width="1.5" stroke-linecap="round" stroke-linejoin="round"></path>
                            <path d="M42.9381028,23.5609934 C42.9381028,24.7450334 41.9783128,25.7048235 40.7942727,25.7048235 C39.6102327,25.7048235 38.6502127,24.7450334 38.6502127,23.5609934 C38.6502127,22.3771834 39.6102327,21.4171634 40.7942727,21.4171634 C41.9783128,21.4171634 42.9381028,22.3771834 42.9381028,23.5609934 Z" id="Stroke-7" stroke="#1D4371" stroke-width="1.5" stroke-linecap="round" stroke-linejoin="round"></path>
                            <polyline id="Stroke-9" stroke="#1D4371" stroke-width="1.5" stroke-linecap="round" stroke-linejoin="round" points="18.3949863 20.9961714 6.90648613 20.9961714 6.90648613 4.89019109 4.34129608 4.89019109"></polyline>
                            <polyline id="Stroke-11" stroke="#1D4371" stroke-width="1.5" stroke-linecap="round" stroke-linejoin="round" points="38.6503277 4.89012209 36.0694977 4.89012209 36.0694977 20.9961024 24.5064774 20.9961024"></polyline>
                            <path d="M4.34141108,4.89012209 C4.34141108,6.08911211 3.36943106,7.06086213 2.17067104,7.06086213 C0.971911018,7.06086213 -6.90000013e-05,6.08911211 -6.90000013e-05,4.89012209 C-6.90000013e-05,3.69136207 0.971911018,2.71938205 2.17067104,2.71938205 C3.36943106,2.71938205 4.34141108,3.69136207 4.34141108,4.89012209 Z" id="Stroke-13" stroke="#1D4371" stroke-width="1.5" stroke-linecap="round" stroke-linejoin="round"></path>
                            <path d="M42.9381028,4.89012209 C42.9381028,6.07416211 41.9783128,7.03395213 40.7942727,7.03395213 C39.6102327,7.03395213 38.6502127,6.07416211 38.6502127,4.89012209 C38.6502127,3.70631207 39.6102327,2.74629205 40.7942727,2.74629205 C41.9783128,2.74629205 42.9381028,3.70631207 42.9381028,4.89012209 Z" id="Stroke-15" stroke="#1D4371" stroke-width="1.5" stroke-linecap="round" stroke-linejoin="round"></path>
                            <polyline id="Stroke-17" stroke="#1D4371" stroke-width="1.5" stroke-linecap="round" stroke-linejoin="round" points="18.3949863 26.2780985 6.90648613 26.2780985 6.90648613 37.1593987 4.34129608 37.1593987"></polyline>
                            <polyline id="Stroke-19" stroke="#1D4371" stroke-width="1.5" stroke-linecap="round" stroke-linejoin="round" points="38.6503277 37.1592837 36.0694977 37.1592837 36.0694977 26.2779835 24.5064774 26.2779835"></polyline>
                            <path d="M4.34141108,37.1592837 C4.34141108,38.3582737 3.36943106,39.3300237 2.17067104,39.3300237 C0.971911018,39.3300237 -6.90000013e-05,38.3582737 -6.90000013e-05,37.1592837 C-6.90000013e-05,35.9605237 0.971911018,34.9885436 2.17067104,34.9885436 C3.36943106,34.9885436 4.34141108,35.9605237 4.34141108,37.1592837 Z" id="Stroke-21" stroke="#1D4371" stroke-width="1.5" stroke-linecap="round" stroke-linejoin="round"></path>
                            <path d="M42.9381028,37.1592837 C42.9381028,38.3433237 41.9783128,39.3031137 40.7942727,39.3031137 C39.6102327,39.3031137 38.6502127,38.3433237 38.6502127,37.1592837 C38.6502127,35.9754737 39.6102327,35.0154536 40.7942727,35.0154536 C41.9783128,35.0154536 42.9381028,35.9754737 42.9381028,37.1592837 Z" id="Stroke-23" stroke="#1D4371" stroke-width="1.5" stroke-linecap="round" stroke-linejoin="round"></path>
                            <line x1="9.70788618" y1="34.9886586" x2="33.2872566" y2="34.9886586" id="Stroke-25" stroke="#1D4371" stroke-width="1.5" stroke-linecap="round"></line>
                            <path d="M32.3672106,32.1161426 L10.6278402,32.1161426 C10.1197702,32.1161426 9.70784018,31.7042126 9.70784018,31.1961426 L9.70784018,15.8956223 C9.70784018,15.3875523 10.1197702,14.9756223 10.6278402,14.9756223 L32.3672106,14.9756223 C32.8752806,14.9756223 33.2872106,15.3875523 33.2872106,15.8956223 L33.2872106,31.1961426 C33.2872106,31.7042126 32.8752806,32.1161426 32.3672106,32.1161426 Z" id="Stroke-27" stroke="#1D4371" stroke-width="1.5" stroke-linecap="round" stroke-linejoin="round"></path>
                            <path d="M29.4365045,29.4093645 L13.5639742,29.4093645 C13.0651042,29.4093645 12.6605342,29.0050245 12.6605342,28.5061545 L12.6605342,18.6159243 C12.6605342,18.1170543 13.0651042,17.7127143 13.5639742,17.7127143 L29.4365045,17.7127143 C29.9353745,17.7127143 30.3397146,18.1170543 30.3397146,18.6159243 L30.3397146,28.5061545 C30.3397146,29.0050245 29.9353745,29.4093645 29.4365045,29.4093645 Z" id="Stroke-29" stroke="#F5A623" stroke-width="1.5" stroke-linecap="round" stroke-linejoin="round"></path>
                            <path d="M31.3539456,8.59234016 C31.3539456,6.87286012 30.1452955,5.4362801 28.5316155,5.08415009 C28.5707155,4.91579009 28.5937155,4.74099009 28.5937155,4.56067008 C28.5937155,3.28854006 27.5626255,2.25745004 26.2904955,2.25745004 C25.9305455,2.25745004 25.5912955,2.34232004 25.2879255,2.48952005 C24.5901054,1.09710002 23.1507654,0.140760003 21.4874054,0.140760003 C19.1404853,0.140760003 17.2376953,2.04332004 17.2376953,4.39024008 C17.2376953,4.92200009 17.3363653,5.4303001 17.5146153,5.89950011 C16.8814253,5.3403701 16.0502053,5.00066009 15.1391753,5.00066009 C13.1554252,5.00066009 11.5474952,6.60859012 11.5474952,8.59234016 C11.5474952,10.5282502 13.0792952,12.1055902 14.9970353,12.1805702 L14.9970353,12.1840202 L28.1206055,12.1840202 L28.1206055,12.1660802 C29.9359955,11.9862202 31.3539456,10.4551102 31.3539456,8.59234016 Z" id="Stroke-31" stroke="#4A90E2" stroke-width="1.38000003" stroke-linejoin="round"></path>
                        </g>
                    </g>
                </g>
            </g>
        </g>
    </g>
</svg>