<?xml version="1.0" encoding="UTF-8"?>
<svg width="90px" height="79px" viewBox="0 0 90 79" version="1.1" xmlns="http://www.w3.org/2000/svg" xmlns:xlink="http://www.w3.org/1999/xlink">
    <!-- Generator: Sketch 63.1 (92452) - https://sketch.com -->
    <title>Group 16</title>
    <desc>Created with Sketch.</desc>
    <defs>
        <polygon id="rapid111-path-1" points="54.5 15 88.7080034 34.75 88.7080034 74.25 54.5 94 20.2919966 74.25 20.2919966 34.75"></polygon>
        <filter x="-5.0%" y="-8.0%" width="110.0%" height="123.5%" filterUnits="objectBoundingBox" id="rapid111-filter-2">
            <feMorphology radius="0.25" operator="dilate" in="SourceAlpha" result="shadowSpreadOuter1"></feMorphology>
            <feOffset dx="0" dy="3" in="shadowSpreadOuter1" result="shadowOffsetOuter1"></feOffset>
            <feGaussianBlur stdDeviation="2.5" in="shadowOffsetOuter1" result="shadowBlurOuter1"></feGaussianBlur>
            <feComposite in="shadowBlurOuter1" in2="SourceAlpha" operator="out" result="shadowBlurOuter1"></feComposite>
            <feColorMatrix values="0 0 0 0 0   0 0 0 0 0   0 0 0 0 0  0 0 0 0.1 0" type="matrix" in="shadowBlurOuter1"></feColorMatrix>
        </filter>
        <polygon id="rapid111-path-3" points="0.183059909 0.0154843929 14.2205567 0.0154843929 14.2205567 13.6555976 0.183059909 13.6555976"></polygon>
    </defs>
    <g id="rapid111-Page-1" stroke="none" stroke-width="1" fill="none" fill-rule="evenodd">
        <g id="rapid111-1200XL-Desktop---Home" transform="translate(-1019.000000, -667.000000)">
            <g id="rapid111-Group-16" transform="translate(1008.000000, 649.000000)">
                <g id="rapid111-Group-20">
                    <g id="rapid111-Polygon-Copy-85" transform="translate(54.500000, 54.500000) scale(-1, 1) rotate(30.000000) translate(-54.500000, -54.500000) ">
                        <use fill="black" fill-opacity="1" filter="url(#rapid111-filter-2)" xlink:href="#rapid111-path-1"></use>
                        <use stroke="#D8D8D8" stroke-width="0.5" fill="#FFFFFF" fill-rule="evenodd" xlink:href="#rapid111-path-1"></use>
                    </g>
                    <g id="rapid111-Group-24" transform="translate(37.000000, 31.000000)">
                        <path d="M9.1336461,34.0027977 L5.39681969,34.0027977 C5.15238749,34.0027977 4.95440846,33.8045975 4.95440846,33.5603865 L4.95440846,29.8233388 C4.95440846,29.5791278 5.15238749,29.3809276 5.39681969,29.3809276 L9.1336461,29.3809276 C9.3778571,29.3809276 9.57605732,29.5791278 9.57605732,29.8233388 L9.57605732,33.5603865 C9.57605732,33.8045975 9.3778571,34.0027977 9.1336461,34.0027977 Z" id="rapid111-Stroke-1" stroke="#4A90E2" stroke-width="1.42499998" stroke-linecap="round" stroke-linejoin="round"></path>
                        <line x1="14.0066509" y1="33.797364" x2="30.7499249" y2="33.797364" id="rapid111-Stroke-3" stroke="#4A90E2" stroke-width="1.42499998" stroke-linecap="round" stroke-linejoin="round"></line>
                        <line x1="14.0066509" y1="29.903371" x2="21.7957429" y2="29.903371" id="rapid111-Stroke-5" stroke="#4A90E2" stroke-width="1.42499998" stroke-linecap="round" stroke-linejoin="round"></line>
                        <g id="rapid111-Group-9" transform="translate(2.654467, 0.205721)">
                            <mask id="rapid111-mask-4" fill="white">
                                <use xlink:href="#path-3"></use>
                            </mask>
                            <g id="rapid111-Clip-8"></g>
                            <path d="M14.0064297,10.6365834 C10.8327928,7.66181032 8.82601545,5.79859544 8.04184156,5.09847968 C7.20524193,4.35191074 6.67700293,3.57039131 6.37837535,2.63911568 C6.23083121,2.17945042 5.97710837,1.86799291 5.57938068,1.65961723 C5.29358303,1.50986103 4.92638171,1.28600095 4.53728104,1.04931094 C3.86680683,0.640744177 3.17332723,0.218462663 2.69662914,0.0470283132 C2.43693375,-0.0463204552 2.05203598,0.0804303607 1.85494178,0.256288823 C1.59900689,0.485900248 1.27095897,0.836953555 0.953307707,1.17650417 C0.76815861,1.3747044 0.591857737,1.56317158 0.448958911,1.70651282 C0.147676867,2.0091221 0.102772128,2.36282987 0.312475048,2.78798706 C0.579691428,3.32994081 1.49415543,4.63682357 1.76778677,5.024597 C1.82043371,5.09870088 1.87020497,5.17302597 1.91909141,5.24536021 C2.21617055,5.68600179 2.52320394,6.14190655 3.19611141,6.25450021 C4.27780686,6.4354464 4.77463466,6.92674407 5.40330101,7.54855304 L5.62052492,7.76223766 C5.89725315,8.03078128 9.28059299,11.1811916 11.6541292,13.3801966 L11.9514296,13.6555976 L12.0237638,13.2569851 C12.0715442,12.993308 12.1859075,12.7603785 12.3544662,12.5838564 L12.5090889,12.4212703 L11.1258902,11.1274386 C9.07332333,9.20825875 6.74734631,7.03314397 5.65591782,5.98639901 C5.19890703,5.54796948 4.65518363,5.36857173 4.12915669,5.19470412 C3.97519758,5.14382683 3.82101727,5.09294954 3.66927022,5.03543608 C3.3728547,4.92306363 3.16514263,4.79432196 2.97955112,4.47069815 C2.85744562,4.25723473 2.53868833,3.81769918 2.23032771,3.39232079 C2.02969422,3.11603498 1.84034221,2.85501236 1.75960216,2.72914636 C1.60276739,2.48515657 1.61272164,2.36990845 1.80760378,2.16861134 C1.85029647,2.12481263 1.89785567,2.07083846 1.94939658,2.01244018 C2.27545365,1.64346922 2.56987832,1.35236263 2.86496661,1.52025769 C3.09679009,1.65275985 3.6526798,2.02261564 4.09907272,2.31969478 C4.38044626,2.50683472 4.63284186,2.67495099 4.77264381,2.76299082 C4.97615298,2.89084767 5.17169874,3.13749192 5.24823588,3.36223683 C5.57318692,4.31651784 6.10585004,5.1110884 6.9243108,5.86296628 C8.74527541,7.53594432 11.8706895,10.4717852 13.1302343,11.6563413 L13.3689151,11.8813074 L13.4888086,11.5756012 C13.5887935,11.3209936 13.7549189,11.118148 13.9694884,10.9887427 L14.2205567,10.8369957 L14.0064297,10.6365834 Z" id="rapid111-Fill-7" fill="#4A90E2" mask="url(#mask-4)"></path>
                        </g>
                        <path d="M30.8254003,22.5808901 C30.7521812,21.5755106 30.2805708,20.699094 29.3413318,19.8226773 C27.59978,18.1979221 23.8678201,14.6904859 22.0391133,12.9721607 L21.826756,12.7724121 L21.6907145,13.0298954 C21.569715,13.2590644 21.3881052,13.4347017 21.1655724,13.5380047 L20.8676084,13.6762582 L23.0150725,15.6945382 C24.8506367,17.419942 26.6859796,19.1453458 28.5244195,20.8674315 C29.1674642,21.4697743 29.5012635,22.0679143 29.4897608,22.6080984 C29.5269233,23.9054693 29.0672581,24.7332207 28.0426337,25.2130157 C27.0598171,25.6731234 26.1031029,25.5450453 25.3496765,24.8504597 C23.4787195,23.1259408 21.5947113,21.3514293 19.7726406,19.6357586 L17.691317,17.6776465 L17.5676631,17.9733984 C17.4659085,18.2167246 17.3022164,18.4111643 17.0945043,18.5357031 L16.8423299,18.6867865 L17.0562357,18.8880836 C19.0992907,20.8101392 22.9188481,24.3969882 24.3106738,25.6976772 C25.0713999,26.4079684 26.0135146,26.7751697 26.9777498,26.7751697 C27.5604054,26.7751697 28.1512456,26.6408979 28.7150987,26.3670454 C30.0938733,25.6976772 30.9419756,24.1760038 30.8254003,22.5808901" id="rapid111-Fill-10" fill="#4A90E2"></path>
                        <path d="M22.6987927,18.4093062 L23.6333864,19.2877137 C24.8157304,20.3990507 25.9980744,21.5106089 27.1837365,22.6184066 C27.3100449,22.7365304 27.5261628,22.9389335 27.7798856,22.9389335 C27.9112818,22.9389335 28.0530746,22.8840745 28.1975218,22.7352032 C28.3178577,22.6111068 28.3771408,22.4770562 28.3738227,22.3361482 C28.368735,22.1149426 28.2076973,21.9355449 28.0678953,21.8039275 C25.6819716,19.5595754 23.2947206,17.3165505 20.9041516,15.0772861 C20.7143572,14.899658 20.2865455,14.9304055 20.0867968,15.1367904 C19.9918996,15.2347845 19.9412436,15.3743652 19.9445616,15.5292091 C19.9478797,15.7002011 20.0171171,15.8747323 20.1208625,15.97339 C20.9488351,16.7637577 21.8646264,17.6253535 22.6987927,18.4093062" id="rapid111-Fill-12" fill="#4A90E2"></path>
                        <path d="M24.0599372,22.309139 L25.9297883,24.0672812 C26.1069739,24.2342915 26.2927867,24.3223313 26.4684239,24.3223313 C26.4741753,24.3223313 26.4799266,24.3221101 26.4858992,24.3221101 C26.6305676,24.3170224 26.7650606,24.2515455 26.8754422,24.1329793 C27.1285015,23.8608964 27.0782878,23.5096219 26.7413916,23.1930767 C25.6784987,22.1956606 24.6167117,21.1971384 23.5547036,20.1986163 C22.2378666,18.9607497 20.9208084,17.7226619 19.6026441,16.4859013 C19.422804,16.3171214 18.9868077,16.2423539 18.7538782,16.4856801 C18.6543357,16.5892043 18.6019099,16.7380757 18.6058916,16.9050859 C18.6094309,17.0709901 18.6702625,17.2253916 18.7680353,17.318298 C20.5259563,18.987958 22.293168,20.6485485 24.0599372,22.309139" id="rapid111-Fill-14" fill="#4A90E2"></path>
                        <path d="M9.03901434,25.6471096 C8.18648791,25.591587 7.40541089,25.1177646 6.89597437,24.3466418 C6.22461533,23.3308656 6.37680479,21.8731206 7.24238235,21.0281152 C9.92096112,18.4134649 20.0150156,8.68992976 21.2126228,7.58058362 C21.6968419,7.13175743 22.0001148,6.65638657 21.9072084,5.79479071 C21.8030206,4.8287858 22.1016482,3.87671684 22.7488958,3.11355748 C23.4145035,2.32827755 24.3785175,1.8451645 25.3940725,1.78809345 L25.4573373,1.78366934 C25.5117539,1.77990884 25.5705946,1.77614834 25.6239051,1.77614834 C25.6557587,1.77614834 25.6858427,1.77769678 25.7112813,1.78123607 C25.7409229,1.78543898 25.7692372,1.79362359 25.7922426,1.80114458 C25.7714493,1.83122854 25.744241,1.86573662 25.714157,1.89825384 C25.273073,2.37450953 24.828671,2.84788954 24.3840477,3.32082714 C24.0681661,3.65750208 23.7522844,3.99373461 23.4372877,4.33129437 C22.9302844,4.87501777 22.9409023,5.19731435 23.4819712,5.7118386 C24.1500121,6.34758353 24.8231408,6.97801953 25.4984815,7.60602226 C26.0287114,8.09931078 26.3784375,8.08493241 26.8849983,7.5482876 C27.1457997,7.27200179 27.4057163,6.99483115 27.6656329,6.71766052 C28.1547185,6.19605769 28.6435829,5.67467606 29.1390835,5.15882457 C29.1782369,5.11768033 29.2271234,5.07963296 29.2671616,5.05308829 C29.2740189,5.08206622 29.2768946,5.11989238 29.2799915,5.17408776 L29.2819823,5.20616257 C29.3481228,6.25135909 28.977161,7.2806288 28.2639941,8.02896739 C27.5298127,8.79942654 26.4987733,9.21352345 25.3692975,9.19803905 C24.5831327,9.1803426 24.1705843,9.49224252 23.7580358,10.0078728 C23.2025885,10.7017948 13.1049947,22.5893844 11.3393315,24.628679 C10.7307949,25.331228 9.892868,25.702411 9.03901434,25.6471096 M30.2886891,3.81123998 L30.2886891,3.81146118 C30.173441,3.48982822 30.0141729,3.15315328 29.7042639,3.08789763 C29.3894883,3.02308438 29.0939576,3.28123133 28.8459861,3.54358119 L28.2416523,4.18109576 C27.6222766,4.8327675 26.9818864,5.50722341 26.3662712,6.1847762 C26.2377507,6.32612659 26.1678497,6.34780474 26.1375446,6.34802594 C26.1132119,6.3462563 26.0399929,6.32944467 25.9116936,6.19473045 C25.5829821,5.85031331 25.2270623,5.51496561 24.8538884,5.19819917 C24.7563367,5.11546827 24.7010353,5.0415856 24.6986021,4.9904871 C24.6968324,4.95133371 24.7227135,4.8761238 24.8574277,4.73764908 C25.5867426,3.98687724 26.3335327,3.189431 27.0765624,2.36743095 C27.1139461,2.32584429 27.1555328,2.28248799 27.1986679,2.23736205 C27.4680963,1.95488248 27.803444,1.60360797 27.6786841,1.22822204 C27.5092406,0.718343106 26.8936253,0.626321571 26.486607,0.565711233 L26.4501081,0.559959887 C24.8330951,0.31729733 23.2578899,0.790898547 22.1270868,1.85998527 C21.0042471,2.92177221 20.4437121,4.419113 20.5883806,5.96887952 C20.6040862,6.13611097 20.5023316,6.397576 20.370493,6.52852972 C19.6787831,7.21714279 18.9627405,7.90531345 18.2701458,8.57114235 C17.737925,9.08256972 17.2057043,9.59421831 16.679235,10.1107334 C16.6155278,10.1724498 8.89500949,17.6014191 6.46971115,19.9329262 C5.20906036,21.1449118 4.81819005,22.9229625 5.47406469,24.4627748 C6.03791779,25.7871328 7.19570797,26.7066845 8.57116447,26.9232448 C8.77799172,26.9555408 8.98526137,26.9714676 9.1912038,26.9714676 C10.366248,26.9714676 11.4997056,26.4509708 12.3115302,25.5152711 C12.5997611,25.1832414 12.8846739,24.8483361 13.1695867,24.5127672 L13.4887864,24.1382661 C13.8334248,23.7341235 14.7335104,22.6732213 15.8859917,21.3145765 C19.0651587,17.5671322 24.3860385,11.2952895 24.8605246,10.7834197 C24.9824089,10.6515811 25.2339196,10.542748 25.4330047,10.5347846 C26.5598261,10.4923131 27.4448697,10.2478809 28.2177621,9.76476783 C30.2404663,8.50168379 31.0921079,6.05360127 30.2886891,3.81123998" id="rapid111-Fill-16" fill="#F5A623"></path>
                        <path d="M9.18191316,21.6252155 C8.46918868,21.6393727 7.92502287,22.2149497 7.9416133,22.9374072 C7.95820372,23.6684918 8.50856328,24.204473 9.2305784,24.1934127 C9.95790245,24.1823524 10.5423277,23.5800095 10.5160042,22.8690547 C10.4903444,22.1771235 9.88313496,21.6110584 9.18191316,21.6252155" id="rapid111-Fill-18" fill="#F5A623"></path>
                        <line x1="4.42411225e-05" y1="42.2347212" x2="35.9076877" y2="42.2347212" id="rapid111-Stroke-20" stroke="#1D4371" stroke-width="1.42499998" stroke-linecap="round"></line>
                        <path d="M26.1621647,13.1539475 L34.5803655,13.1539475 C35.3134409,13.1539475 35.9075992,13.748327 35.9075992,14.4811812 L35.9075992,37.9291973 C35.9075992,38.6620515 35.3134409,39.256431 34.5803655,39.256431 L1.32718943,39.256431 C0.59433524,39.256431 -4.42411225e-05,38.6620515 -4.42411225e-05,37.9291973 L-4.42411225e-05,14.4811812 C-4.42411225e-05,13.748327 0.59433524,13.1539475 1.32718943,13.1539475 L9.94712974,13.1539475" id="rapid111-Stroke-22" stroke="#1D4371" stroke-width="1.42499998" stroke-linecap="round" stroke-linejoin="round"></path>
                    </g>
                </g>
            </g>
        </g>
    </g>
</svg>